<?xml version="1.0" encoding="utf-8"?>
<!-- Generator: Adobe Illustrator 16.0.0, SVG Export Plug-In . SVG Version: 6.00 Build 0)  -->
<!DOCTYPE svg PUBLIC "-//W3C//DTD SVG 1.1//EN" "http://www.w3.org/Graphics/SVG/1.1/DTD/svg11.dtd">
<svg version="1.1" id="Layer_1" xmlns="http://www.w3.org/2000/svg" xmlns:xlink="http://www.w3.org/1999/xlink" x="0px" y="0px"
	 width="612px" height="382.5px" viewBox="0 204.75 612 382.5" enable-background="new 0 204.75 612 382.5" xml:space="preserve">
<g>
	<g>
		<path fill="#FFFFFF" d="M323.27,332.76c-5.508-1.582-11.348,0.663-14.331,5.483l-52.938,84.71l-52.938-84.71
			c-3.035-4.82-8.849-7.063-14.331-5.483c-5.483,1.555-9.231,6.554-9.231,12.24v89.25h-2.779l-23.103-92.335
			c-1.402-5.686-6.527-9.664-12.368-9.664H115.75c-4.819,0-9.231,2.729-11.424,7.038l-51,102c-3.137,6.298-0.587,13.948,5.712,17.11
			c1.861,0.919,3.8,1.353,5.712,1.353c4.667,0,9.155-2.576,11.423-7.038l47.455-94.963h7.65l23.103,92.336
			c1.402,5.686,6.528,9.664,12.368,9.664h25.5c7.038,0,12.75-5.713,12.75-12.751v-57.553l40.188,64.312
			c4.642,7.445,16.983,7.445,21.625,0L307,389.446v57.553c0,7.038,5.713,12.751,12.75,12.751c7.038,0,12.751-5.713,12.751-12.751
			V345C332.5,339.313,328.751,334.316,323.27,332.76z"/>
	</g>
</g>
<g>
	<g>
		<path fill="#FFFFFF" d="M516.279,396l41.973-41.999c4.973-4.973,4.973-13.056,0-18.029s-13.056-4.973-18.028,0l-41.974,41.973
			l-41.974-41.973c-2.396-2.372-5.636-3.724-9.026-3.724h-76.5c-7.038,0-12.751,5.712-12.751,12.75v102
			c0,7.038,5.713,12.751,12.751,12.751h76.5c3.391,0,6.63-1.353,9.026-3.749l41.974-41.972l41.974,41.998
			c2.499,2.474,5.763,3.724,9.026,3.724c3.265,0,6.528-1.249,9.002-3.749c4.973-4.972,4.973-13.056,0-18.028L516.279,396z
			 M441.971,434.25H383.5v-76.5h58.471l38.25,38.25L441.971,434.25z"/>
	</g>
</g>
<g>
	<g>
		<path fill="#FFFFFF" d="M409,383.25h-38.25c-7.038,0-12.751,5.712-12.751,12.75s5.713,12.75,12.751,12.75H409
			c7.037,0,12.75-5.712,12.75-12.75S416.037,383.25,409,383.25z"/>
	</g>
</g>
<g>
	<g>
		<path fill="#FFFFFF" d="M154,408.75H90.25c-7.038,0-12.75,5.713-12.75,12.751s5.712,12.749,12.75,12.749H154
			c7.038,0,12.75-5.712,12.75-12.75C166.75,414.461,161.038,408.75,154,408.75z"/>
	</g>
</g>
<g>
	<g>
		<path fill="#FFFFFF" d="M523.75,204.75H90.25C41.035,204.75,1,244.785,1,294v204c0,49.215,40.035,89.249,89.25,89.249h433.5
			C572.966,587.25,613,547.216,613,498V294C613,244.785,572.966,204.75,523.75,204.75z M587.5,498
			c0,35.139-28.586,63.749-63.749,63.749H90.25c-35.165,0-63.75-28.61-63.75-63.749V294c0-35.139,28.586-63.75,63.75-63.75h433.5
			c35.165,0,63.749,28.611,63.749,63.75V498z"/>
	</g>
</g>
</svg>
