<svg id="logo" xmlns="http://www.w3.org/2000/svg" width="14" height="14" viewBox="0 0 14 14">
  <path id="Exclusión_1" data-name="Exclusión 1" d="M7,14a7,7,0,1,1,7-7A7.008,7.008,0,0,1,7,14ZM7,8.373a1,1,0,0,1,.4.084l3.41,1.5a1.055,1.055,0,0,0,.426.094,1,1,0,0,0,.938-.723.951.951,0,0,0-.385-1.1L8.8,6.123a1,1,0,0,1-.419-.715L7.995,1.641a1,1,0,0,0-1.989,0L5.617,5.407a1,1,0,0,1-.419.715L2.21,8.224a.951.951,0,0,0-.385,1.1,1,1,0,0,0,.938.723,1.055,1.055,0,0,0,.426-.094L6.6,8.457A1,1,0,0,1,7,8.373Z" transform="translate(0 0)" fill="#fff"/>
</svg>
