<?xml version="1.0" encoding="utf-8"?>
<!-- Generator: Adobe Illustrator 16.0.0, SVG Export Plug-In . SVG Version: 6.00 Build 0)  -->
<!DOCTYPE svg PUBLIC "-//W3C//DTD SVG 1.1//EN" "http://www.w3.org/Graphics/SVG/1.1/DTD/svg11.dtd">
<svg version="1.1" id="Capa_1" xmlns="http://www.w3.org/2000/svg" xmlns:xlink="http://www.w3.org/1999/xlink" x="0px" y="0px"
	 width="612px" height="396.619px" viewBox="0 197.696 612 396.619" enable-background="new 0 197.696 612 396.619"
	 xml:space="preserve">
<g>
	<g>
		<path fill="#FFFFFF" d="M163.088,369.691c-11.464,0-20.252,3.684-20.252,3.684l-2.427,14.412c0,0,7.25-2.947,18.226-2.947
			c6.23,0,10.781,0.693,10.781,5.753c0,3.078-0.553,4.215-0.553,4.215s-4.908-0.401-7.184-0.401
			c-14.465,0-29.657,6.155-29.657,24.781c0,14.672,9.958,18.02,16.146,18.02c11.8,0,16.893-7.649,17.153-7.672l-0.553,6.394h14.726
			l6.566-46.052C186.049,370.319,169.004,369.691,163.088,369.691z M154.831,423.197c-5.19,0-6.544-3.955-6.544-6.316
			c0-4.573,2.481-10.078,14.736-10.078c2.861,0.012,3.164,0.304,3.641,0.391C166.989,410.011,164.908,423.197,154.831,423.197z"/>
	</g>
</g>
<g>
	<g>
		<path fill="#FFFFFF" d="M216.27,385.132c2.352,0,11.421,0.748,11.421,0.748l2.113-14.758c0,0-5.873-1.311-15.43-1.311
			c-12.375,0-24.922,4.941-24.922,21.834c0,19.158,20.935,17.208,20.935,25.291c0,5.374-5.851,5.818-10.359,5.818
			c-7.813,0-14.834-2.665-14.855-2.557l-2.232,14.639c0.401,0.108,4.735,2.037,18.768,2.037c3.76,0,25.291,0.976,25.291-21.249
			c0-20.782-19.927-16.676-19.927-25.03C207.07,386.432,210.31,385.132,216.27,385.132z"/>
	</g>
</g>
<g>
	<g>
		<path fill="#FFFFFF" d="M251.453,387.017h8.853l2.135-15.733h-8.343l1.701-9.752h-16.72c-0.368,0.357-9.871,55.001-9.871,61.633
			c0,9.871,5.537,14.249,13.328,14.173c6.101-0.043,10.857-1.733,12.537-2.199l2.091-14.217c-1.148,0-2.828,0.499-4.313,0.499
			c-5.819,0-6.458-3.11-6.09-5.396L251.453,387.017z"/>
	</g>
</g>
<g>
	<g>
		<path fill="#FFFFFF" d="M321.527,295.737h-29.841c-4.009,5.418-7.78,11.183-11.193,16.817h53.236
			C330.033,306.681,325.948,301.068,321.527,295.737z"/>
	</g>
</g>
<g>
	<g>
		<path fill="#FFFFFF" d="M554.365,484.907c-0.325-0.488-0.597-0.856-0.813-1.084c-0.12-0.108-0.271-0.228-0.467-0.281
			c0.467-0.033,0.856-0.206,1.138-0.499c0.271-0.292,0.423-0.639,0.423-1.04c0-0.282-0.087-0.553-0.249-0.802
			s-0.401-0.434-0.693-0.531c-0.271-0.108-0.737-0.162-1.376-0.162h-1.886v5.472h0.889v-2.318h0.509
			c0.304,0,0.553,0.064,0.694,0.194c0.228,0.185,0.552,0.607,0.932,1.269l0.477,0.866h1.095L554.365,484.907z M552.393,482.935
			h-1.083v-1.646h1.019c0.422,0,0.704,0.032,0.866,0.098c0.174,0.064,0.282,0.162,0.38,0.281c0.087,0.13,0.13,0.271,0.13,0.423
			c0,0.249-0.087,0.466-0.271,0.617C553.249,482.848,552.892,482.935,552.393,482.935z"/>
	</g>
</g>
<g>
	<g>
		<path fill="#FFFFFF" d="M342.776,329.057h-71.591c-4.573,8.658-7.607,15.203-8.463,16.828h86.837
			C347.599,340.099,345.345,334.497,342.776,329.057z"/>
	</g>
</g>
<g>
	<g>
		<polygon fill="#FFFFFF" points="111.532,356.374 95.051,405.242 94.195,356.374 69.792,356.374 56.421,436.005 72.556,436.005 
			82.73,375.976 84.226,436.005 95.744,436.005 117.231,375.976 107.707,436.005 124.827,436.005 138.014,356.374 		"/>
	</g>
</g>
<g>
	<g>
		<path fill="#FFFFFF" d="M434.176,369.691c-11.486,0-20.263,3.684-20.263,3.684l-2.438,14.412c0,0,7.26-2.947,18.226-2.947
			c6.23,0,10.792,0.693,10.792,5.753c0,3.078-0.574,4.215-0.574,4.215s-4.897-0.401-7.194-0.401
			c-14.455,0-29.636,6.155-29.636,24.781c0,14.672,9.969,18.02,16.146,18.02c11.789,0,16.882-7.649,17.152-7.672l-0.553,6.394
			h14.715l6.566-46.052C457.147,370.319,440.092,369.691,434.176,369.691z M425.94,423.197c-5.201,0-6.545-3.955-6.545-6.316
			c0-4.573,2.481-10.078,14.736-10.078c2.85,0.012,3.153,0.304,3.641,0.391C438.087,410.011,435.996,423.197,425.94,423.197z"/>
	</g>
</g>
<g>
	<g>
		<path fill="#FFFFFF" d="M554.896,428.67c-0.444-0.824-1.094-1.452-1.906-1.886c-0.803-0.444-1.626-0.661-2.492-0.661
			c-0.835,0.011-1.669,0.228-2.493,0.661c-0.813,0.434-1.44,1.062-1.896,1.886c-0.455,0.813-0.683,1.657-0.683,2.535
			s0.228,1.712,0.683,2.514c0.444,0.802,1.072,1.441,1.874,1.896c0.813,0.444,1.647,0.672,2.515,0.672
			c0.888,0,1.733-0.228,2.524-0.672c0.802-0.455,1.43-1.095,1.874-1.896c0.467-0.802,0.672-1.636,0.672-2.514
			C555.567,430.306,555.351,429.461,554.896,428.67z M554.191,433.297c-0.368,0.671-0.889,1.181-1.571,1.582
			c-0.672,0.368-1.365,0.563-2.091,0.563c-0.737,0-1.441-0.195-2.103-0.563c-0.683-0.38-1.191-0.899-1.582-1.582
			c-0.39-0.683-0.563-1.377-0.563-2.103s0.185-1.431,0.586-2.113c0.379-0.672,0.888-1.191,1.581-1.571
			c0.694-0.379,1.377-0.541,2.081-0.541s1.397,0.173,2.059,0.541c0.693,0.38,1.203,0.889,1.582,1.571s0.585,1.388,0.585,2.113
			S554.571,432.625,554.191,433.297z"/>
	</g>
</g>
<g>
	<g>
		<path fill="#FFFFFF" d="M552.22,432.928c-0.314-0.509-0.597-0.866-0.802-1.083c-0.131-0.119-0.271-0.217-0.466-0.282
			c0.466-0.032,0.845-0.206,1.126-0.498c0.271-0.282,0.434-0.65,0.434-1.04c0-0.271-0.086-0.553-0.26-0.802
			c-0.173-0.239-0.4-0.423-0.672-0.531c-0.271-0.108-0.747-0.163-1.387-0.163h-1.907v5.462h0.889v-2.319h0.509
			c0.314,0,0.563,0.065,0.716,0.185c0.228,0.195,0.53,0.606,0.932,1.289l0.466,0.856h1.095L552.22,432.928z M550.27,430.924h-1.073
			v-1.658h0.997c0.434,0,0.715,0.032,0.889,0.087c0.141,0.075,0.271,0.151,0.357,0.292c0.098,0.142,0.141,0.261,0.141,0.444
			c0,0.238-0.098,0.444-0.26,0.596C551.114,430.869,550.778,430.924,550.27,430.924z"/>
	</g>
</g>
<g>
	<g>
		<path fill="#FFFFFF" d="M490.998,370.482c-7.487,0-13.047,10.218-13.047,10.218l1.496-9.395h-15.582l-10.435,64.819h17.163
			c4.888-27.696,5.775-50.159,17.381-46.052c2.048-10.706,4.021-14.855,6.241-19.374
			C494.216,370.709,493.176,370.482,490.998,370.482z"/>
	</g>
</g>
<g>
	<g>
		<path fill="#FFFFFF" d="M534.124,356.46l-3.608,22.376c0,0-6.285-8.701-16.146-8.701c-15.332,0.011-28.097,18.486-28.097,39.703
			c0,13.706,6.815,27.132,20.729,27.132c10.023,0,15.571-6.989,15.571-6.989l-0.727,5.971h16.265l12.786-79.523L534.124,356.46z
			 M512.918,420.717c-6.024,0-8.842-5.05-8.842-12.982c0-12.97,5.819-21.519,13.177-21.519c6.003,0.011,9.091,4.139,9.091,13.87
			C526.344,408.916,521.977,420.717,512.918,420.717z"/>
	</g>
</g>
<g>
	<g>
		<path fill="#FFFFFF" d="M597.355,197.696H16.865c-8.712,0-15.755,7.054-15.755,15.755V578.56c0,8.701,7.043,15.755,15.755,15.755
			h580.49c8.712,0,15.755-7.054,15.755-15.755V213.451C613.11,204.75,606.067,197.696,597.355,197.696z M558.162,485.698
			c-0.455,0.823-1.072,1.451-1.874,1.896s-1.647,0.672-2.514,0.672c-0.889,0-1.734-0.228-2.536-0.672
			c-0.791-0.444-1.419-1.072-1.885-1.896c-0.444-0.791-0.672-1.637-0.672-2.515c0-0.877,0.228-1.712,0.683-2.535
			c0.444-0.823,1.094-1.441,1.896-1.886c0.813-0.422,1.637-0.649,2.504-0.649c0.855,0,1.679,0.228,2.481,0.649
			c0.813,0.444,1.451,1.063,1.896,1.886c0.455,0.823,0.672,1.669,0.672,2.535C558.813,484.051,558.618,484.929,558.162,485.698z
			 M569.519,396.011c0.021,86.74-70.259,157.085-157.01,157.106c-40.568,0.011-77.562-15.364-105.431-40.623
			c-27.87,25.215-64.787,40.58-105.291,40.58c-86.697,0-157.063-70.356-157.063-157.063c0-86.36,69.814-156.511,156.056-157.074
			c0.336,0,0.672,0,1.008,0c40.504,0,77.432,15.365,105.301,40.58c27.858-25.225,64.809-40.601,105.345-40.612
			c86.75-0.033,157.085,70.28,157.106,157.031C569.519,395.957,569.519,395.967,569.519,396.011z"/>
	</g>
</g>
<g>
	<g>
		<path fill="#FFFFFF" d="M289.887,495.32c4.974,6.089,10.24,11.897,16.059,17.163c0.13-0.119,0.271-0.228,0.4-0.336
			c0,0-0.011,0-0.011-0.011h0.032c5.722-5.212,11.063-10.824,15.95-16.816H289.887z"/>
	</g>
</g>
<g>
	<g>
		<path fill="#FFFFFF" d="M311.277,409.111c0,0,2.199-10.836,2.199-15.246c0-11.02-5.482-24.456-23.838-24.456
			c-16.817,0.011-29.267,18.128-29.267,38.607c0,23.633,15.592,29.246,28.888,29.246c12.266,0,17.662-2.753,17.662-2.753
			l2.947-16.123c0,0-9.329,4.117-17.76,4.117c-17.955,0-14.812-13.393-14.812-13.393H311.277L311.277,409.111z M289.692,384.417
			c9.438,0,7.693,10.608,7.693,11.454h-18.562C278.824,394.775,280.58,384.417,289.692,384.417z"/>
	</g>
</g>
<g>
	<g>
		<path fill="#FFFFFF" d="M389.706,371.63c8.506,0,15.343,4.779,15.343,4.779l2.73-17.716c0,0-10.12-4.096-18.832-4.096
			c-19.299,0-38.076,16.752-38.076,48.208c0,20.858,10.131,34.631,30.09,34.631c5.635,0,14.629-2.286,14.629-2.286l2.99-18.247
			c0,0-8.191,4.106-13.826,4.106c-11.876-0.011-16.633-9.069-16.633-18.778C368.121,382.477,378.328,371.63,389.706,371.63z"/>
	</g>
</g>
<g>
	<g>
		<path fill="#FFFFFF" d="M268.92,462.325c2.72,5.841,5.884,11.399,9.275,16.817h55.728c3.381-5.396,6.426-11.01,9.146-16.817
			H268.92z"/>
	</g>
</g>
<g>
	<g>
		<path fill="#FFFFFF" d="M350.567,370.503c-7.487,0-13.035,10.218-13.035,10.218l1.506-9.395h-15.571l-10.435,64.819h17.164
			c4.865-27.686,5.775-50.159,17.38-46.052c2.037-10.717,3.999-14.867,6.22-19.396C353.796,370.699,352.756,370.482,350.567,370.503
			z"/>
	</g>
</g>
</svg>
