<?xml version="1.0" encoding="utf-8"?>
<!-- Generator: Adobe Illustrator 16.0.0, SVG Export Plug-In . SVG Version: 6.00 Build 0)  -->
<!DOCTYPE svg PUBLIC "-//W3C//DTD SVG 1.1//EN" "http://www.w3.org/Graphics/SVG/1.1/DTD/svg11.dtd">
<svg version="1.1" id="Capa_1" xmlns="http://www.w3.org/2000/svg" xmlns:xlink="http://www.w3.org/1999/xlink" x="0px" y="0px"
	 width="612px" height="420.75px" viewBox="0 185.625 612 420.75" enable-background="new 0 185.625 612 420.75"
	 xml:space="preserve">
<g>
	<g>
		<path fill="#FFFFFF" d="M573.75,185.625H38.25c-21.076,0-38.25,17.174-38.25,38.25v344.25c0,21.114,17.174,38.25,38.25,38.25
			h535.5c21.114,0,38.25-17.136,38.25-38.25v-344.25C612,202.799,594.864,185.625,573.75,185.625z M210.643,278.113
			c1.53-9.218,9.486-15.988,18.857-15.988h85.45c16.448,0,32.13,7.076,43.031,19.393c10.901,12.355,15.95,28.764,13.923,45.097
			c-3.595,28.649-28.075,50.261-56.954,50.261h-47.2c-9.371,0-17.327,6.771-18.857,15.988l-16.447,98.762H175.07L210.643,278.113z
			 M447.64,389.612c-6.158,36.949-37.905,63.763-75.467,63.763H322.18l-16.447,98.762c-1.53,9.218-9.486,15.988-18.857,15.988H229.5
			c-5.623,0-10.978-2.448-14.611-6.809c-3.634-4.284-5.202-9.983-4.246-15.529l2.716-15.912h35.267
			c9.371,0,17.327-6.771,18.857-15.988l16.447-98.762h31.021c48.119,0,88.894-35.993,94.86-83.768
			c0.842-6.732,0.956-13.502,0.344-20.158C437.313,326.576,453.071,357.406,447.64,389.612z"/>
	</g>
</g>
</svg>
