<?xml version="1.0" encoding="utf-8"?>
<!-- Generator: Adobe Illustrator 16.0.0, SVG Export Plug-In . SVG Version: 6.00 Build 0)  -->
<!DOCTYPE svg PUBLIC "-//W3C//DTD SVG 1.1//EN" "http://www.w3.org/Graphics/SVG/1.1/DTD/svg11.dtd">
<svg version="1.1" id="logo" xmlns="http://www.w3.org/2000/svg" xmlns:xlink="http://www.w3.org/1999/xlink" x="0px" y="0px"
	 width="14px" height="14px" viewBox="0 0 14 14" enable-background="new 0 0 14 14" xml:space="preserve">
<path id="Exclusión_1" fill="#FFFFFF" d="M7,14c-3.866,0-7-3.134-7-7s3.134-7,7-7c3.865,0,7,3.134,7,7
	C13.996,10.864,10.864,13.996,7,14z M7,8.373c0.138,0,0.274,0.029,0.4,0.084l3.411,1.5c0.133,0.061,0.278,0.093,0.426,0.094
	c0.438-0.01,0.816-0.303,0.938-0.723c0.138-0.412-0.021-0.864-0.385-1.1L8.8,6.123C8.563,5.957,8.41,5.696,8.381,5.408L7.995,1.641
	c-0.058-0.549-0.55-0.948-1.099-0.89c-0.47,0.05-0.841,0.421-0.89,0.89L5.617,5.407c-0.03,0.288-0.183,0.548-0.419,0.715L2.21,8.225
	c-0.364,0.235-0.522,0.688-0.385,1.1c0.121,0.42,0.5,0.713,0.938,0.723c0.147-0.001,0.292-0.033,0.426-0.094L6.6,8.457
	C6.726,8.402,6.862,8.373,7,8.373z"/>
</svg>
